<svg width="1600" height="1000" viewBox="0 0 1600 1000" fill="none" xmlns="http://www.w3.org/2000/svg">
  <rect width="1600" height="1000" rx="72" fill="#082947"/>
  <rect width="1600" height="1000" rx="72" fill="url(#bg)"/>
  <circle cx="1320" cy="164" r="214" fill="#22B5B2" fill-opacity="0.24"/>
  <circle cx="212" cy="826" r="228" fill="#0E587F" fill-opacity="0.2"/>
  <rect x="118" y="122" width="430" height="86" rx="43" fill="white" fill-opacity="0.12"/>
  <text x="156" y="176" fill="#DDF6FF" font-family="Arial, sans-serif" font-size="34" font-weight="700" letter-spacing="4">MOLECULAR SCREENING</text>
  <text x="118" y="332" fill="white" font-family="Arial, sans-serif" font-size="94" font-weight="700">Blood Safety</text>
  <text x="118" y="414" fill="#D6EEF8" font-family="Arial, sans-serif" font-size="36">Screening confidence at scale</text>
  <text x="118" y="464" fill="#D6EEF8" font-family="Arial, sans-serif" font-size="32">Sharper visibility for critical blood-screening workflows and transfusion safety.</text>
  <g>
    <rect x="972" y="206" width="394" height="514" rx="56" fill="white" fill-opacity="0.12" stroke="white" stroke-opacity="0.14" stroke-width="4"/>
    <path d="M1170 286C1170 286 1078 406 1078 494C1078 560.274 1131.73 614 1198 614C1264.27 614 1318 560.274 1318 494C1318 406 1226 286 1226 286H1170Z" fill="#F4556C"/>
    <circle cx="1198" cy="494" r="42" fill="#FF9CAD" fill-opacity="0.52"/>
    <rect x="1044" y="666" width="308" height="42" rx="21" fill="#FFFFFF" fill-opacity="0.2"/>
    <rect x="1068" y="730" width="226" height="16" rx="8" fill="#AEEBFF"/>
  </g>
  <g opacity="0.82">
    <rect x="786" y="258" width="96" height="250" rx="30" fill="#D8F4FF" fill-opacity="0.2" stroke="#D8F4FF" stroke-width="4"/>
    <rect x="818" y="208" width="32" height="60" rx="16" fill="#D8F4FF"/>
    <rect x="804" y="440" width="60" height="42" rx="12" fill="#FF9AA7" fill-opacity="0.82"/>
    <circle cx="924" cy="334" r="10" fill="#B7EEFF"/>
    <circle cx="956" cy="382" r="10" fill="#B7EEFF"/>
    <circle cx="924" cy="430" r="10" fill="#B7EEFF"/>
  </g>
  <rect x="118" y="670" width="432" height="120" rx="30" fill="white" fill-opacity="0.1"/>
  <text x="154" y="736" fill="white" font-family="Arial, sans-serif" font-size="32" font-weight="700">Safe screening + faster confidence</text>
  <defs>
    <linearGradient id="bg" x1="68" y1="36" x2="1522" y2="952" gradientUnits="userSpaceOnUse">
      <stop stop-color="#0A3257"/>
      <stop offset="1" stop-color="#0A6087"/>
    </linearGradient>
  </defs>
</svg>
